<svg xmlns="http://www.w3.org/2000/svg" width="760" height="390" viewBox="0 0 760 390" role="img" aria-label="Throughput by engine, scenario reshape">
<rect x="118" y="8" width="10" height="10" rx="2" fill="#2a78d6"/>
<text x="133" y="17" font-size="12" fill="#898781" font-family="system-ui,-apple-system,'Segoe UI',sans-serif">Typeflow v0.0.1</text>
<rect x="251" y="8" width="10" height="10" rx="2" fill="#1baf7a"/>
<text x="266" y="17" font-size="12" fill="#898781" font-family="system-ui,-apple-system,'Segoe UI',sans-serif">jq v1.8.2 (WASM)</text>
<rect x="390.4" y="8" width="10" height="10" rx="2" fill="#eda100"/>
<text x="405.4" y="17" font-size="12" fill="#898781" font-family="system-ui,-apple-system,'Segoe UI',sans-serif">JSONata v2.2.1</text>
<rect x="517" y="8" width="10" height="10" rx="2" fill="#008300"/>
<text x="532" y="17" font-size="12" fill="#898781" font-family="system-ui,-apple-system,'Segoe UI',sans-serif">Native JS</text>
<text x="108" y="83" font-size="12" text-anchor="end" fill="#898781" font-family="system-ui,-apple-system,'Segoe UI',sans-serif">n = 10</text>
<line x1="118" y1="30" x2="118" y2="128" stroke="rgba(137,135,129,0.35)" stroke-width="1"/>
<rect x="118" y="34" width="84.6" height="18" rx="3" fill="#2a78d6"/>
<text x="210.56463773821213" y="47" font-size="12" fill="#898781" font-family="system-ui,-apple-system,'Segoe UI',sans-serif">1.04 M ops/s</text>
<rect x="118" y="58" width="3.0" height="18" rx="3" fill="#1baf7a"/>
<text x="129" y="71" font-size="12" fill="#898781" font-family="system-ui,-apple-system,'Segoe UI',sans-serif">525 ops/s</text>
<rect x="118" y="82" width="3.0" height="18" rx="3" fill="#eda100"/>
<text x="129" y="95" font-size="12" fill="#898781" font-family="system-ui,-apple-system,'Segoe UI',sans-serif">25.5 k ops/s</text>
<rect x="118" y="106" width="524.0" height="18" rx="3" fill="#008300"/>
<text x="650" y="119" font-size="12" fill="#898781" font-family="system-ui,-apple-system,'Segoe UI',sans-serif">6.42 M ops/s</text>
<text x="108" y="199" font-size="12" text-anchor="end" fill="#898781" font-family="system-ui,-apple-system,'Segoe UI',sans-serif">n = 1,000</text>
<line x1="118" y1="146" x2="118" y2="244" stroke="rgba(137,135,129,0.35)" stroke-width="1"/>
<rect x="118" y="150" width="132.5" height="18" rx="3" fill="#2a78d6"/>
<text x="258.49799465078036" y="163" font-size="12" fill="#898781" font-family="system-ui,-apple-system,'Segoe UI',sans-serif">35.7 k ops/s</text>
<rect x="118" y="174" width="3.0" height="18" rx="3" fill="#1baf7a"/>
<text x="129" y="187" font-size="12" fill="#898781" font-family="system-ui,-apple-system,'Segoe UI',sans-serif">287 ops/s</text>
<rect x="118" y="198" width="3.0" height="18" rx="3" fill="#eda100"/>
<text x="129" y="211" font-size="12" fill="#898781" font-family="system-ui,-apple-system,'Segoe UI',sans-serif">679 ops/s</text>
<rect x="118" y="222" width="524.0" height="18" rx="3" fill="#008300"/>
<text x="650" y="235" font-size="12" fill="#898781" font-family="system-ui,-apple-system,'Segoe UI',sans-serif">141.3 k ops/s</text>
<text x="108" y="315" font-size="12" text-anchor="end" fill="#898781" font-family="system-ui,-apple-system,'Segoe UI',sans-serif">n = 10,000</text>
<line x1="118" y1="262" x2="118" y2="360" stroke="rgba(137,135,129,0.35)" stroke-width="1"/>
<rect x="118" y="266" width="193.2" height="18" rx="3" fill="#2a78d6"/>
<text x="319.2297658091641" y="279" font-size="12" fill="#898781" font-family="system-ui,-apple-system,'Segoe UI',sans-serif">5.2 k ops/s</text>
<rect x="118" y="290" width="3.0" height="18" rx="3" fill="#1baf7a"/>
<text x="129" y="303" font-size="12" fill="#898781" font-family="system-ui,-apple-system,'Segoe UI',sans-serif">42 ops/s</text>
<rect x="118" y="314" width="3.0" height="18" rx="3" fill="#eda100"/>
<text x="129" y="327" font-size="12" fill="#898781" font-family="system-ui,-apple-system,'Segoe UI',sans-serif">79 ops/s</text>
<rect x="118" y="338" width="524.0" height="18" rx="3" fill="#008300"/>
<text x="650" y="351" font-size="12" fill="#898781" font-family="system-ui,-apple-system,'Segoe UI',sans-serif">14.1 k ops/s</text>
</svg>